<?xml version="1.0" encoding="UTF-8"?>
<svg xmlns="http://www.w3.org/2000/svg" xmlns:xlink="http://www.w3.org/1999/xlink" width="2400" height="2400" viewBox="0 0 2400 2400">
<path fill-rule="evenodd" fill="rgb(10.594177%, 10.205078%, 11.376953%)" fill-opacity="1" d="M 394.324219 1935.320312 C 342.734375 2020.507812 161.550781 2256.109375 166.929688 2344.558594 L 284.0625 2160.628906 C 434.105469 2150.023438 694.214844 2184.554688 859.496094 2191.917969 C 996.664062 2198.03125 1395.050781 2264.230469 1476.269531 2250.5 C 1399.398438 2196.207031 942.910156 2121.753906 861.398438 2112.890625 C 656.242188 2090.554688 503.378906 2110.847656 311.820312 2121.929688 C 400.5625 1957.242188 373.988281 1995.445312 589.085938 1975.441406 C 703.609375 1964.792969 818.144531 1953.050781 933.304688 1944.671875 C 1043.570312 1936.632812 1179.441406 1937.109375 1281.410156 1923.484375 L 1623.101562 1852.308594 L 993.636719 1877.105469 C 777.597656 1884.476562 585.359375 1933.503906 406.128906 1981.484375 C 452.652344 1894.863281 514.535156 1826.175781 562.035156 1753.4375 C 642.292969 1630.507812 650.085938 1645.585938 805.996094 1653.90625 C 863.632812 1634.535156 1066.289062 1643.445312 1127.488281 1641.664062 L 1493.539062 1629.378906 L 1581.910156 1604.828125 C 1696.109375 1581.195312 1721.871094 1567.929688 1867.570312 1556.1875 L 1823.289062 1552.164062 C 1775.230469 1547.972656 1612.859375 1565.335938 1547.449219 1569.558594 C 1450.199219 1575.828125 1329.421875 1567.207031 1230.101562 1564.964844 C 875.902344 1556.933594 939.851562 1600.519531 652.289062 1638.832031 C 813.980469 1375.058594 838.503906 1536.226562 1363.660156 1452.359375 C 1865.828125 1372.148438 1806.078125 1438.558594 2222.300781 1487.519531 C 1950.03125 1368.46875 1754.449219 1391.070312 1482.25 1395.738281 C 1213.71875 1400.320312 907.207031 1457.636719 793.410156 1454.777344 C 829.992188 1414.28125 861.414062 1364.980469 911.183594 1314.578125 C 1147.769531 1332.558594 1372.378906 1336.390625 1605.160156 1344.109375 C 1759.941406 1349.238281 2053.988281 1272.5 2211.429688 1247.761719 C 2128.28125 1242.621094 1837.75 1274.5 1565.941406 1261.039062 C 1342.359375 1249.960938 1127.71875 1300.191406 920.695312 1305.820312 L 1094.859375 1097.378906 C 1124.980469 1060.21875 1122.410156 1055.5 1165.269531 1046.878906 C 1215.421875 1036.789062 1522.148438 1039.640625 1580.589844 1046.628906 C 1433.96875 1094.53125 1160.390625 1088.949219 1046.519531 1172.800781 C 1423.628906 1208.808594 1973.890625 1045.71875 2296.949219 981.589844 C 1953.109375 962.078125 1521.800781 996.171875 1177.929688 1017.121094 C 1254.078125 909.898438 1294.289062 933.890625 1431.96875 937.289062 C 1545.710938 940.089844 1639.621094 936.640625 1751.179688 930.53125 C 1879.851562 923.488281 2272.320312 898.878906 2362.320312 865.339844 C 2212.058594 844.011719 1958.878906 848.921875 1806.578125 853.308594 C 1620.039062 858.691406 1449.960938 900.488281 1285.789062 905.558594 C 1406.429688 755.871094 1401.78125 871.71875 1773.191406 824.589844 C 1934.261719 804.148438 2105.648438 772.761719 2244.179688 735.988281 C 1890.789062 721.078125 1649.660156 794.839844 1376.671875 822.398438 C 1432.359375 735.480469 1462.671875 756.851562 1573.5 737.328125 C 1711.570312 713 2125.140625 601.628906 2205.480469 549.121094 L 1568.320312 690.019531 C 1553.699219 695.359375 1536.71875 703.179688 1525.960938 706.328125 C 1433.910156 733.21875 1505.46875 655.511719 1413.070312 742.269531 C 1460.960938 529.378906 1569.539062 259.761719 1590.859375 52.199219 C 1589.46875 81.089844 1469.160156 363.640625 1446.019531 439.191406 C 1359.050781 723.160156 1436.929688 747.761719 1310.859375 836.78125 C 1364.699219 575.601562 1411.640625 325.421875 1439.78125 60.851562 L 1348.839844 325.160156 L 1389.949219 49.101562 C 1308.691406 197.621094 1234.25 497.191406 1206.621094 677.878906 C 1193.25 765.210938 1200.308594 926.800781 1158.558594 995.328125 L 994.761719 1167.179688 C 979.332031 1180.058594 976.683594 1181.449219 963.464844 1190.53125 C 998.511719 904.109375 983.390625 676.328125 978.683594 399.820312 C 977.207031 313.121094 990.988281 196.210938 964.839844 138.238281 C 879.164062 483.089844 873.867188 793.921875 911.242188 1132.261719 C 928.226562 1285.949219 908.714844 1280.589844 806.0625 1372.019531 C 829.621094 1184.589844 838.828125 966.699219 817.164062 778.671875 C 806.792969 688.648438 794.097656 609.109375 791.320312 510.699219 C 788.582031 413.691406 798.550781 299.28125 782.695312 216.871094 C 732.472656 476.730469 710.355469 825.019531 737.023438 1077.109375 C 786.867188 1548.527344 821.691406 1329.128906 583.894531 1668.035156 L 516.59375 1740.667969 C 523.164062 1353.070312 296.253906 785.230469 173.507812 362.101562 C 163.59375 511.308594 255.289062 928.859375 292.757812 1081.519531 L 387.035156 1421.753906 C 427.382812 1548.515625 471.269531 1647.660156 508.910156 1763.734375 L 394.324219 1935.320312 "/>
<path fill-rule="evenodd" fill="rgb(9.397888%, 9.397888%, 10.205078%)" fill-opacity="1" d="M 643.859375 1562.824219 C 663.832031 1359.46875 648.382812 1118.011719 604.007812 930.820312 C 581.148438 834.339844 550.816406 746.539062 529.730469 654.5 C 519.230469 608.660156 512.359375 564.210938 507.027344 514.121094 L 484.03125 353.199219 C 463.632812 507.328125 479.027344 844.691406 500.894531 997.941406 C 514.5625 1093.648438 563.699219 1389.730469 599.8125 1489.019531 L 643.859375 1562.824219 "/>
<path fill-rule="evenodd" fill="rgb(11.376953%, 11.376953%, 12.156677%)" fill-opacity="1" d="M 1466.871094 704.421875 C 1566.988281 665.039062 1695.488281 629.960938 1801.96875 576.871094 C 1860.441406 547.730469 1897.109375 517.371094 1952.890625 489.179688 C 1975.179688 477.929688 2008.539062 465.589844 2017.371094 444.28125 L 2013.769531 388.710938 C 2013.578125 387.328125 2013.660156 382.820312 2012.648438 380.101562 C 1979.410156 404.148438 1743.710938 512.011719 1709.21875 520.050781 C 1786.011719 442.820312 1850.628906 365.890625 1916.628906 273.308594 C 1827.929688 343.101562 1811.890625 347.519531 1725.910156 439.988281 C 1689.980469 478.621094 1671.128906 501.851562 1632.769531 541.769531 C 1619.601562 555.460938 1603.300781 574.871094 1592.070312 581.921875 C 1538.488281 615.621094 1619.261719 584.570312 1572.558594 585.710938 C 1549.339844 586.300781 1536.558594 619.761719 1504.730469 667.179688 C 1566.101562 521.691406 1656.96875 374.898438 1705.558594 203.898438 C 1612.21875 287.980469 1502.660156 556.101562 1466.871094 704.421875 "/>
</svg>
